<?xml version="1.0" encoding="iso-8859-1"?>
<!-- Generator: Adobe Illustrator 19.0.0, SVG Export Plug-In . SVG Version: 6.00 Build 0)  -->
<svg version="1.1" id="Layer_1" xmlns="http://www.w3.org/2000/svg" xmlns:xlink="http://www.w3.org/1999/xlink" x="0px" y="0px"
	 viewBox="0 0 401.967 401.967" style="enable-background:new 0 0 401.967 401.967;" xml:space="preserve">

<path style="fill:#FDBF5E;" d="M160.192,320.965c4.913,29.673,18.554,58.117,40.792,81.002
	c22.885-22.885,36.461-51.329,40.792-81.002H160.192z"/>
<path style="fill:#2EA2DB;" d="M200.984,274.614c47.58,0,88.372,27.216,103.24,64.323c4.331-9.891,6.206-21.01,6.206-32.129
	c0-53.139-49.455-97.034-110.028-97.034S90.374,253.022,90.374,306.808c0,11.119,2.457,22.238,6.206,32.129
	C112.612,301.184,153.404,274.614,200.984,274.614z"/>
<g>
	<rect x="145.97" y="256.06" style="fill:#FFFFFF;" width="110.028" height="64.905"/>
	<path style="fill:#FFFFFF;" d="M313.469,120.691c0-65.552-53.786-117.463-118.691-114.36C139.117,9.434,92.766,54.557,88.434,110.8
		c-2.457,28.444,5.56,55.661,20.428,76.671c17.907,25.988,30.901,25.341,35.232,56.242l1.875,12.347h110.028l1.228-8.663
		c4.331-32.776,17.907-34.004,36.461-61.22C306.099,167.689,313.469,145.386,313.469,120.691z"/>
</g>
<g>
	<rect x="145.97" y="314.824" style="fill:#193651;" width="110.028" height="12.347"/>
	<rect x="194.778" y="203.503" style="fill:#193651;" width="12.347" height="11.766"/>
	<rect x="194.778" y="222.703" style="fill:#193651;" width="12.347" height="11.766"/>
	<path style="fill:#193651;" d="M194.778,0.125C136.079,3.228,87.206,50.808,82.293,110.153
		c-2.457,29.026,5.56,57.471,21.657,81.002c6.206,9.244,12.347,15.451,17.325,19.782c9.244,9.244,14.222,14.869,17.325,33.358
		l1.875,11.766v71.111H262.85v-70.465l1.228-8.016c2.457-20.428,8.663-26.57,18.554-37.107c4.913-5.56,10.537-11.766,17.325-21.01
		c14.222-20.428,21.01-43.895,21.01-68.59C319.675,52.036,263.432-2.978,194.778,0.125z M249.792,314.824h-97.616v-20.428h97.681
		v20.428H249.792z M249.792,282.63h-97.616v-20.428h97.681v20.428H249.792z M288.127,182.493
		c-6.206,8.663-11.119,14.222-16.097,19.782c-9.891,11.119-17.907,19.782-21.657,43.895v3.685h-43.248v-5.56h-12.347v5.56h-43.248
		l-0.646-6.788c-3.103-22.885-10.537-30.901-20.428-40.792c-4.913-4.913-9.891-10.537-16.097-18.554
		c-14.869-21.01-21.657-46.352-19.782-72.339c4.331-53.786,47.58-95.806,100.784-98.909c61.22-3.103,111.903,46.998,111.903,108.154
		C307.327,142.929,301.121,164.586,288.127,182.493z"/>
	<polygon style="fill:#193651;" points="244.232,119.462 222.64,97.806 200.984,119.462 179.327,97.806 157.735,119.462 
		139.764,102.137 131.101,110.8 157.735,137.37 179.327,115.713 194.778,131.163 194.778,194.84 207.19,194.84 207.19,131.163 
		222.64,115.713 244.232,137.37 270.867,110.8 262.204,102.137 	"/>
</g>
<g>
</g>
<g>
</g>
<g>
</g>
<g>
</g>
<g>
</g>
<g>
</g>
<g>
</g>
<g>
</g>
<g>
</g>
<g>
</g>
<g>
</g>
<g>
</g>
<g>
</g>
<g>
</g>
<g>
</g>
</svg>
